<?xml version="1.0" standalone="no"?>
<!DOCTYPE svg PUBLIC "-//W3C//DTD SVG 20010904//EN"
 "http://www.w3.org/TR/2001/REC-SVG-20010904/DTD/svg10.dtd">
<svg version="1.0" xmlns="http://www.w3.org/2000/svg"
 width="359.000000pt" height="172.000000pt" viewBox="0 0 359.000000 172.000000"
 preserveAspectRatio="xMidYMid meet">
<metadata>
Created by potrace 1.15, written by Peter Selinger 2001-2017
</metadata>
<g transform="translate(0.000000,172.000000) scale(0.100000,-0.100000)"
fill="#000000" stroke="none">
<path d="M698 1646 l-138 -51 0 -37 c0 -27 -4 -38 -14 -38 -20 0 -66 -44 -66
-62 0 -24 18 -34 129 -74 102 -36 158 -41 184 -15 16 16 -34 91 -65 98 -34 7
-35 17 -7 46 17 17 20 18 16 5 -5 -16 5 -18 96 -20 56 -2 114 1 130 5 30 10
32 27 19 116 -7 42 -9 45 -57 62 -27 10 -59 17 -70 17 -11 0 -82 -23 -157 -52z"/>
<path d="M2323 1460 c-13 -5 -23 -18 -23 -29 0 -25 46 -41 121 -41 33 0 59 -4
59 -10 0 -18 -67 -22 -126 -7 -46 12 -55 12 -40 2 21 -16 118 -30 141 -21 9 3
15 0 15 -9 0 -20 -88 -20 -135 -1 -19 8 -35 11 -35 6 0 -13 68 -30 123 -30 28
0 47 -5 47 -11 0 -12 -118 -8 -155 5 -13 5 -11 2 5 -8 15 -9 49 -15 88 -16 61
0 82 -12 41 -25 -24 -8 -104 2 -134 17 -19 9 -19 9 -1 -6 20 -16 117 -32 141
-22 10 3 15 0 15 -11 0 -13 -10 -15 -70 -11 -38 3 -77 11 -85 18 -9 7 -15 8
-15 2 0 -16 58 -32 115 -32 55 0 65 -8 65 -50 0 -27 59 -43 141 -38 94 5 99
11 103 136 3 130 -3 137 -110 137 -68 0 -74 2 -74 21 0 13 -10 25 -25 32 -30
14 -160 15 -192 2z"/>
<path d="M1545 1325 c-209 -74 -395 -142 -412 -150 l-33 -15 0 -210 c0 -115 3
-210 8 -210 8 1 44 13 467 163 165 59 305 107 311 107 6 0 32 9 58 20 l46 21
0 198 c0 211 0 212 -48 211 -9 -1 -188 -61 -397 -135z m415 -90 c0 -91 -1
-165 -3 -165 -2 0 -183 -63 -402 -140 -219 -77 -400 -140 -402 -140 -1 0 -3
75 -3 168 l0 167 388 136 c213 76 395 137 405 138 16 1 17 -13 17 -164z"/>
<path d="M1995 959 c-41 -15 -55 -17 -81 -7 -20 7 -37 8 -48 1 -15 -8 -10 -12
28 -27 43 -16 105 -14 77 3 -6 4 3 8 21 8 18 0 44 3 58 7 21 5 20 4 -3 -5 -15
-6 -25 -14 -22 -19 3 -4 -4 -6 -14 -3 -11 3 -28 0 -38 -5 -17 -10 -17 -11 2
-17 11 -4 28 -11 37 -16 10 -5 25 -9 33 -9 8 0 23 -5 33 -11 15 -9 36 -6 100
16 45 15 82 29 82 30 0 2 -21 10 -46 19 -42 14 -51 14 -95 0 -27 -9 -47 -19
-45 -23 2 -3 -10 -7 -26 -7 -37 -2 -23 8 51 32 41 13 50 19 37 26 -9 5 -26 6
-39 3 -15 -4 -18 -3 -9 3 11 7 10 10 -3 16 -23 8 -33 7 -90 -15z"/>
<path d="M1750 915 c-19 -8 -34 -19 -32 -25 1 -6 -2 -8 -8 -5 -16 10 -62 -4
-55 -15 3 -6 -1 -7 -10 -4 -8 4 -28 2 -43 -4 -15 -6 -48 -18 -74 -27 -26 -10
-45 -21 -42 -26 3 -5 -2 -6 -10 -3 -13 5 -35 -1 -133 -36 -18 -7 -31 -16 -28
-20 3 -4 -4 -6 -14 -3 -11 3 -27 1 -35 -4 -25 -14 56 -47 92 -38 24 6 25 8 9
16 -10 6 -27 7 -40 3 -12 -3 -19 -4 -16 0 5 5 286 106 296 106 2 0 1 4 -2 10
-3 5 0 7 8 4 21 -8 168 46 160 59 -4 6 -1 7 6 3 16 -10 63 2 56 14 -8 13 -41
11 -85 -5z"/>
<path d="M1832 903 c-6 -2 -9 -10 -6 -15 4 -7 2 -8 -5 -4 -18 11 -63 -2 -55
-16 4 -7 3 -8 -4 -4 -16 10 -63 -4 -55 -17 3 -6 1 -7 -6 -3 -16 10 -53 -3 -45
-16 4 -7 2 -8 -5 -4 -18 11 -63 -2 -55 -16 4 -7 3 -8 -4 -4 -16 10 -63 -4 -55
-17 3 -6 1 -7 -5 -3 -15 9 -113 -24 -106 -35 3 -5 -1 -6 -9 -4 -7 3 -24 2 -38
-4 l-24 -9 27 -7 c15 -4 36 -2 48 5 17 9 29 9 50 0 24 -10 39 -8 90 10 49 17
64 19 73 10 9 -10 9 -11 0 -6 -14 8 -115 -23 -109 -33 2 -3 -9 -6 -25 -7 -15
-1 -26 2 -24 7 7 11 -29 21 -49 13 -9 -3 -13 -11 -10 -16 4 -6 -2 -8 -15 -3
-11 3 -29 2 -38 -4 -17 -9 -17 -10 2 -16 11 -4 28 -11 37 -16 10 -5 25 -9 33
-9 8 0 24 -5 35 -12 19 -12 49 -6 115 22 11 5 54 20 95 33 62 21 159 55 240
84 11 4 6 9 -15 19 -16 7 -25 13 -18 14 7 0 23 -5 37 -11 19 -9 35 -7 77 7
l54 17 -35 15 c-19 8 -50 15 -67 16 -18 0 -28 3 -22 6 5 4 -9 14 -33 23 -45
18 -55 19 -76 10z"/>
<path d="M3110 765 c-21 -7 -44 -9 -57 -4 -14 5 -39 2 -68 -7 -44 -16 -45 -17
-45 -59 0 -40 2 -44 30 -50 26 -6 30 -11 30 -40 0 -19 5 -37 10 -40 6 -4 10
21 10 68 l0 75 45 15 45 16 0 -65 c0 -50 3 -64 15 -64 12 0 15 13 15 55 l0 54
40 12 c44 13 42 21 -5 36 -21 7 -40 6 -65 -2z"/>
<path d="M1790 350 l-75 -28 0 -108 0 -107 35 -12 c31 -10 45 -8 115 15 l80
27 3 105 3 106 -43 14 c-41 14 -47 13 -118 -12z"/>
<path d="M2030 366 l-35 -13 -3 -105 -3 -106 82 -27 c72 -24 86 -26 120 -16
l39 12 0 107 0 108 -72 24 c-93 32 -87 31 -128 16z"/>
</g>
</svg>
